<?xml version="1.0" encoding="utf-8"?>
<!-- Generator: Adobe Illustrator 15.0.0, SVG Export Plug-In . SVG Version: 6.00 Build 0)  -->
<!DOCTYPE svg PUBLIC "-//W3C//DTD SVG 1.1//EN" "http://www.w3.org/Graphics/SVG/1.1/DTD/svg11.dtd">
<svg version="1.1" id="Layer_1" xmlns="http://www.w3.org/2000/svg" xmlns:xlink="http://www.w3.org/1999/xlink" x="0px" y="0px"
	 width="50px" height="872px" viewBox="27.748 445.202 50 872" enable-background="new 27.748 445.202 50 872" xml:space="preserve"
	>
<rect id="bg" x="-1" y="447" display="none" fill="#878FC7" width="107.401" height="892.409"/>
<g id="contact_us">
	<g id="highlight_2_" opacity="0.75">
		<path fill="#FFFFFF" d="M71.396,1168.413H35.359c-0.975,0-2.231-1.217-2.231-2.158c0,0.563,0,0.898,0,0.898
			c0,0.943,1.256,2.158,2.231,2.158h36.037c0.975,0,2.23-1.215,2.23-2.158c0,0,0-0.336,0-0.898
			C73.628,1167.198,72.371,1168.413,71.396,1168.413z"/>
		<path fill="#FFFFFF" d="M34.464,1145.653c1.099,0.592,16.309,8.762,16.875,9.064c0.566,0.305,1.3,0.451,2.04,0.451
			c0.738,0,1.473-0.146,2.039-0.451c0.565-0.303,15.774-8.475,16.873-9.064c0.805-0.432,1.571-1.535,1.139-2.1
			c-0.215,0.469-0.67,0.949-1.139,1.199c-1.099,0.592-16.308,8.762-16.873,9.064c-0.566,0.305-1.301,0.451-2.039,0.451
			c-0.739,0-1.474-0.146-2.04-0.451c-0.566-0.303-15.776-8.475-16.875-9.064c-0.468-0.25-0.922-0.73-1.137-1.199
			C32.895,1144.12,33.66,1145.221,34.464,1145.653z"/>
	</g>
	<path opacity="0.5" fill="#010101" enable-background="new    " d="M34.464,1144.754c1.099,0.59,16.309,8.762,16.875,9.064
		s1.3,0.449,2.04,0.449c0.738,0,1.473-0.145,2.039-0.449c0.565-0.305,15.774-8.475,16.873-9.064c1.101-0.59,2.141-2.443,0.121-2.443
		H34.344C32.326,1142.311,33.365,1144.165,34.464,1144.754z M72.757,1149.254c-1.248,0.65-16.576,8.666-17.34,9.064
		c-0.766,0.398-1.301,0.449-2.039,0.449c-0.739,0-1.274-0.051-2.04-0.449c-0.765-0.398-16.091-8.414-17.34-9.064
		c-0.879-0.457-0.871,0.078-0.871,0.494c0,0.414,0,16.506,0,16.506c0,0.943,1.256,2.158,2.231,2.158h36.037
		c0.975,0,2.23-1.215,2.23-2.158c0,0,0-16.092,0-16.506C73.626,1149.333,73.636,1148.797,72.757,1149.254z"/>
	<g id="inner_shadow" opacity="0.5">
		<path fill="#010101" d="M34.344,1143.211h38.067c0.543,0,0.858,0.137,1.018,0.344c0.29-0.633,0.142-1.244-1.018-1.244H34.344
			c-1.159,0-1.307,0.611-1.017,1.244C33.486,1143.346,33.802,1143.211,34.344,1143.211z"/>
		<path fill="#010101" d="M72.757,1149.254c-1.248,0.65-16.576,8.666-17.34,9.064c-0.766,0.398-1.301,0.449-2.039,0.449
			c-0.739,0-1.274-0.051-2.04-0.449c-0.765-0.398-16.091-8.414-17.34-9.064c-0.879-0.457-0.871,0.078-0.871,0.494
			c0,0.055,0,0.381,0,0.898c0-0.414-0.008-0.951,0.871-0.492c1.249,0.648,16.575,8.666,17.34,9.063c0.765,0.4,1.3,0.451,2.04,0.451
			c0.738,0,1.273-0.051,2.039-0.451c0.764-0.396,16.092-8.414,17.34-9.063c0.879-0.459,0.871,0.078,0.871,0.492
			c0-0.52,0-0.846,0-0.898C73.628,1149.333,73.636,1148.797,72.757,1149.254z"/>
	</g>
</g>
<g id="my_account">
	<g id="highlight_4_" opacity="0.75">
		<path fill="#FFFFFF" d="M61.88,1008.91c0.137-0.811,0.336-2.086,0.438-3.16c0.021-0.248,0.021-0.539-0.004-0.861
			c-0.165,1.721-0.574,3.928-0.574,3.928S61.798,1008.841,61.88,1008.91z"/>
		<path fill="#FFFFFF" d="M46.289,1014.535c-0.297-1.605-1.7-0.141-2.055-3.445c-0.022,0.156-0.035,0.328-0.035,0.518
			c0.286,3.801,1.782,2.164,2.09,3.828c0.701,3.779,2.242,3.367,2.42,5.135c0.009-0.178,0.017-0.357,0.017-0.545
			C48.726,1017.832,47.033,1018.548,46.289,1014.535z"/>
		<path fill="#FFFFFF" d="M60.466,1014.535c-0.743,4.014-2.438,3.299-2.438,5.49c0,0.188,0.008,0.365,0.018,0.543
			c0.178-1.768,1.72-1.354,2.418-5.133c0.31-1.664,1.806-0.027,2.092-3.828c0-0.189-0.014-0.361-0.036-0.52
			C62.166,1014.394,60.764,1012.927,60.466,1014.535z"/>
		<path fill="#FFFFFF" d="M44.441,1004.884c-0.027,0.324-0.027,0.617-0.004,0.863c0.102,1.076,0.301,2.352,0.437,3.16
			c0.084-0.066,0.141-0.094,0.141-0.094S44.606,1006.607,44.441,1004.884z"/>
		<path fill="#FFFFFF" d="M32.228,1037.646c0,0.533,0,0.898,0,0.898h21.15h21.149c0,0,0-0.365,0-0.898H53.378H32.228z"/>
	</g>
	<path opacity="0.5" fill="#010101" enable-background="new    " d="M65.349,1027.402c-5.547-2.021-7.319-3.727-7.319-7.377
		c0-2.191,1.693-1.477,2.437-5.49c0.31-1.664,1.806-0.027,2.092-3.828c0-1.514-0.816-1.891-0.816-1.891s0.414-2.242,0.577-3.967
		c0.201-2.15-1.241-7.703-8.94-7.703c-7.697,0-9.143,5.553-8.939,7.703c0.163,1.725,0.577,3.967,0.577,3.967
		s-0.816,0.377-0.816,1.891c0.286,3.801,1.782,2.164,2.09,3.828c0.745,4.014,2.437,3.299,2.437,5.49c0,3.65-1.771,5.355-7.318,7.377
		c-5.564,2.027-9.18,4.096-9.18,5.506c0,1.408,0,4.738,0,4.738h21.149h21.15c0,0,0-3.33,0-4.738
		C74.529,1031.498,70.914,1029.429,65.349,1027.402z"/>
	<g id="inner_shadow_1_" opacity="0.5">
		<path fill="#010101" d="M62.521,1011.087c0.014-0.121,0.025-0.248,0.036-0.383c0-1.115-0.442-1.611-0.677-1.797
			c-0.082,0.488-0.141,0.807-0.141,0.807S62.365,1010.003,62.521,1011.087z"/>
		<path fill="#010101" d="M53.378,998.044c6.815,0,8.727,4.354,8.936,6.842c0.001-0.014,0.002-0.025,0.004-0.039
			c0.201-2.148-1.242-7.701-8.939-7.701c-7.698,0-9.144,5.553-8.94,7.701c0.001,0.014,0.003,0.025,0.004,0.037
			C44.65,1002.396,46.563,998.044,53.378,998.044z"/>
		<path fill="#010101" d="M41.407,1028.3c5.547-2.02,7.318-3.727,7.318-7.377c0-0.129-0.006-0.246-0.017-0.355
			c-0.178,3.279-2.039,4.916-7.301,6.834c-5.564,2.027-9.18,4.096-9.18,5.506c0,0.25,0,0.561,0,0.898
			C32.228,1032.398,35.843,1030.33,41.407,1028.3z"/>
		<path fill="#010101" d="M45.015,1009.714c0,0-0.059-0.316-0.141-0.807c-0.233,0.186-0.676,0.682-0.676,1.797
			c0.011,0.135,0.022,0.262,0.035,0.383C44.391,1010.003,45.015,1009.714,45.015,1009.714z"/>
		<path fill="#010101" d="M65.349,1027.402c-5.264-1.918-7.125-3.555-7.303-6.834c-0.01,0.109-0.017,0.229-0.017,0.355
			c0,3.65,1.772,5.355,7.319,7.377c5.564,2.029,9.179,4.098,9.179,5.508c0-0.342,0-0.65,0-0.9
			C74.528,1031.498,70.914,1029.429,65.349,1027.402z"/>
	</g>
</g>
<g id="info">
	<g id="highlight_1_" opacity="0.75">
		<path fill="#FFFFFF" d="M50.165,881.75c0.235-0.895,0.306-1.343,0.141-1.478c-0.038,0.169-0.083,0.355-0.141,0.577l-1.649,6.806
			c-0.342,1.305-0.442,2.259-0.374,2.96c0.043-0.566,0.16-1.242,0.374-2.06L50.165,881.75z"/>
		<path fill="#FFFFFF" d="M54.503,889.079c0.433,0,1.847-0.524,3.234-1.614l0.424,0.564c0.131-0.124,0.262-0.245,0.392-0.376
			l-0.814-1.09c-1.389,1.09-2.802,1.615-3.233,1.615c-0.123,0-0.219-0.062-0.276-0.196C54.089,888.778,54.23,889.079,54.503,889.079
			z"/>
		<path fill="#FFFFFF" d="M55.396,866.528c1.854,0,2.557,0.946,2.697,2.125c0.018-0.135,0.029-0.271,0.029-0.408
			c0-1.396-0.623-2.616-2.727-2.616c-2.77,0-3.938,1.919-3.938,3.313c-0.007,0.197,0.003,0.383,0.025,0.561
			C51.655,868.154,52.846,866.528,55.396,866.528z"/>
		<path fill="#FFFFFF" d="M56.621,877.36c0.116-1.47-0.295-2.354-1.33-2.354c-1.724,0-5.747,1.715-9.245,4.635l0.368,0.604
			c3.408-2.736,7.212-4.338,8.876-4.338C56.094,875.905,56.522,876.438,56.621,877.36z"/>
		<path fill="#FFFFFF" d="M53.655,900.127c-11.36,0.151-20.701-8.88-20.967-20.206c-0.004,0.229-0.011,0.456-0.008,0.687
			c0.153,11.428,9.544,20.572,20.976,20.42c11.43-0.154,20.573-9.546,20.422-20.977c-0.002-0.071-0.008-0.142-0.009-0.213
			C73.853,890.954,64.854,899.977,53.655,900.127z"/>
	</g>
	<path opacity="0.5" fill="#010101" enable-background="new    " d="M53.102,858.729c-11.431,0.153-20.573,9.545-20.422,20.978
		c0.153,11.428,9.544,20.571,20.976,20.42c11.43-0.153,20.573-9.545,20.422-20.978C73.923,867.723,64.531,858.577,53.102,858.729z
		 M55.396,865.629c2.104,0,2.727,1.222,2.727,2.616c0,1.744-1.396,3.357-3.778,3.357c-1.994,0-2.942-1.004-2.886-2.66
		C51.457,867.548,52.626,865.629,55.396,865.629z M50.001,892.366c-1.438,0-2.491-0.873-1.485-4.711l1.649-6.806
		c0.287-1.091,0.336-1.526,0-1.526c-0.431,0-2.298,0.753-3.4,1.494l-0.718-1.178c3.498-2.92,7.521-4.635,9.246-4.635
		c1.438,0,1.676,1.7,0.957,4.317l-1.889,7.154c-0.335,1.266-0.191,1.701,0.143,1.701c0.433,0,1.847-0.525,3.234-1.615l0.814,1.09
		C55.151,891.057,51.438,892.366,50.001,892.366z"/>
	<g id="shadow_1_" opacity="0.5">
		<path fill="#010101" d="M54.343,872.504c2.382,0,3.777-1.613,3.777-3.357c0-0.168-0.009-0.332-0.029-0.492
			c-0.199,1.58-1.555,2.949-3.75,2.949c-1.756,0-2.699-0.781-2.86-2.102c-0.015,0.116-0.025,0.23-0.025,0.342
			C51.401,871.5,52.35,872.504,54.343,872.504z"/>
		<path fill="#010101" d="M53.102,859.631c11.358-0.151,20.7,8.88,20.966,20.207c0.004-0.229,0.012-0.457,0.008-0.688
			c-0.152-11.428-9.545-20.572-20.975-20.42c-11.431,0.153-20.573,9.545-20.422,20.979c0.001,0.07,0.007,0.142,0.008,0.213
			C32.903,868.803,41.9,859.78,53.102,859.631z"/>
		<path fill="#010101" d="M48.142,890.615c-0.162,2.104,0.727,2.65,1.859,2.65c1.437,0,5.15-1.312,8.552-4.712l-0.392-0.524
			c-3.291,3.118-6.779,4.337-8.161,4.337C49.051,892.366,48.274,891.979,48.142,890.615z"/>
		<path fill="#010101" d="M46.765,881.719c1.103-0.742,2.97-1.495,3.4-1.495c0.061,0,0.104,0.021,0.141,0.05
			c0.147-0.666,0.126-0.949-0.141-0.949c-0.431,0-2.298,0.753-3.4,1.494l-0.35-0.574c-0.123,0.1-0.247,0.195-0.368,0.298
			L46.765,881.719z"/>
		<path fill="#010101" d="M54.361,886.479c-0.212,0.802-0.232,1.269-0.133,1.505c0.031-0.179,0.072-0.374,0.133-0.604l1.889-7.155
			c0.317-1.155,0.447-2.132,0.371-2.862c-0.047,0.572-0.17,1.23-0.371,1.963L54.361,886.479z"/>
	</g>
</g>
<g id="Home">
	<g id="highlight_5_" opacity="0.75">
		<path fill="#FFFFFF" d="M34.412,743.88c-0.555,0-0.937-0.137-1.132-0.359c-0.404,0.725,0.022,1.258,1.132,1.258h3.763v-0.898
			H34.412L34.412,743.88z"/>
		<path fill="#FFFFFF" d="M38.175,757.757v0.898c0,1.004,0.043,1.818,1.854,1.818h8.763v-0.9h-8.763
			C38.218,759.574,38.175,758.761,38.175,757.757z"/>
		<rect x="48.792" y="745.656" fill="#FFFFFF" width="9.17" height="0.9"/>
		<path fill="#FFFFFF" d="M72.344,743.88h-3.763v0.898h3.763c1.11,0,1.536-0.535,1.132-1.26
			C73.281,743.744,72.899,743.88,72.344,743.88z"/>
		<path fill="#FFFFFF" d="M67.162,759.574h-9.199v0.9h9.199c1.383,0,1.42-0.814,1.42-1.818v-0.898
			C68.582,758.761,68.544,759.574,67.162,759.574z"/>
	</g>
	<path opacity="0.5" fill="#010101" enable-background="new    " d="M73.11,742.138l-18.054-18.07c-0.924-0.957-2.434-0.957-3.356,0
		l-18.053,18.07c-0.924,0.959-0.579,1.742,0.765,1.742h3.763v13.877c0,1.004,0.043,1.816,1.854,1.816h8.763v-13.918h9.17v13.918
		h9.199c1.383,0,1.42-0.813,1.42-1.816V743.88h3.763C73.688,743.88,74.033,743.097,73.11,742.138z"/>
	<path id="shadow_3_" opacity="0.5" fill="#010101" enable-background="new    " d="M55.056,726.068l17.757,17.773
		c0.941-0.168,1.101-0.868,0.297-1.703l-18.054-18.07c-0.924-0.957-2.434-0.957-3.356,0l-18.053,18.07
		c-0.805,0.835-0.646,1.536,0.296,1.703L51.7,726.068C52.623,725.111,54.132,725.111,55.056,726.068z"/>
</g>
<g id="search">
	<g id="highlight_3_" opacity="0.75">
		<path fill="#FFFFFF" d="M49.522,590.903c5.14,0,9.737,4.422,10.048,9.521c0.004-0.119,0.018-0.234,0.018-0.354
			c0-5.323-4.742-10.065-10.065-10.065c-5.321,0-9.636,4.314-9.636,9.639c0,0.182,0.007,0.364,0.018,0.546
			C40.091,595.03,44.32,590.903,49.522,590.903z"/>
		<path fill="#FFFFFF" d="M62.175,607.618c1.078-1.976,1.695-4.237,1.695-6.648c0-0.169-0.007-0.339-0.013-0.508
			c-0.069,2.497-0.789,4.832-2.006,6.832L62.175,607.618z"/>
		<path fill="#FFFFFF" d="M70.656,618.524l-2.119,2.12c-0.836,0.836-2.193,0.836-3.029,0l-8.549-8.549
			c-2.059,1.201-4.451,1.895-7.008,1.895c-7.541,0-14.09-6.411-14.336-13.913c-0.005,0.155-0.012,0.311-0.012,0.465
			c0,7.688,6.661,14.35,14.348,14.35c2.557,0,4.95-0.693,7.008-1.896l8.549,8.548c0.836,0.837,2.193,0.837,3.029,0l2.119-2.12
			c0.481-0.479,0.584-1.032,0.428-1.573C71.007,618.083,70.871,618.311,70.656,618.524z"/>
	</g>
	<path opacity="0.5" fill="#010101" enable-background="new    " d="M70.354,615.797l-8.502-8.503
		c1.282-2.104,2.021-4.577,2.021-7.225c0-7.688-6.662-14.349-14.35-14.349c-7.687,0-13.919,6.231-13.919,13.921
		c0,7.688,6.661,14.348,14.348,14.348c2.557,0,4.95-0.691,7.008-1.895l8.549,8.549c0.837,0.836,2.193,0.836,3.029,0l2.119-2.12
		C71.494,617.688,71.19,616.635,70.354,615.797z M39.886,599.643c0-5.323,4.314-9.639,9.636-9.639
		c5.323,0,10.065,4.742,10.065,10.065c0,5.322-4.314,9.637-9.637,9.637C44.629,609.706,39.886,604.965,39.886,599.643z"/>
	<g id="shadow_2_" opacity="0.6">
		<path fill="#010101" d="M49.95,610.607c5.322,0,9.637-4.315,9.637-9.638c0-0.184-0.006-0.365-0.018-0.546
			c-0.188,5.155-4.417,9.282-9.62,9.282c-5.139,0-9.736-4.422-10.046-9.519c-0.004,0.118-0.018,0.232-0.018,0.354
			C39.886,605.864,44.629,610.607,49.95,610.607z"/>
		<path fill="#010101" d="M70.354,616.696c0.356,0.356,0.614,0.752,0.729,1.152c0.221-0.686-0.106-1.429-0.729-2.053l-8.179-8.179
			c-0.104,0.194-0.209,0.389-0.323,0.576L70.354,616.696z"/>
		<path fill="#010101" d="M49.522,586.62c7.519,0,14.052,6.371,14.336,13.842c0.003-0.131,0.013-0.261,0.013-0.393
			c0-7.688-6.66-14.349-14.349-14.349c-7.687,0-13.919,6.231-13.919,13.921c0,0.145,0.007,0.289,0.012,0.435
			C35.86,592.605,41.991,586.62,49.522,586.62z"/>
	</g>
</g>
<g id="cart">
	<g id="highlight" opacity="0.75">
		<path fill="#FFFFFF" d="M49.111,485.556c-2.214,0-4.036-1.68-4.261-3.834c-0.015,0.148-0.024,0.298-0.024,0.449
			c0,2.367,1.918,4.285,4.285,4.285c2.367,0,4.285-1.918,4.285-4.285c0-0.151-0.008-0.301-0.023-0.449
			C53.147,483.876,51.325,485.556,49.111,485.556z"/>
		<path fill="#FFFFFF" d="M71.593,485.556c-2.215,0-4.036-1.68-4.262-3.834c-0.016,0.148-0.023,0.298-0.023,0.449
			c0,2.367,1.918,4.285,4.285,4.285c2.365,0,4.285-1.918,4.285-4.285c0-0.151-0.01-0.301-0.024-0.449
			C75.628,483.876,73.807,485.556,71.593,485.556z"/>
		<path fill="#FFFFFF" d="M73.492,462.398c-1.271,0.393-28.185,5.512-28.185,5.512l0.185,0.627c0.013,0.045,0.026,0.09,0.04,0.135
			c0.011,0.031,0.026,0.06,0.037,0.089c2.757-0.524,26.728-5.093,27.925-5.462c1.271-0.393,2.389-1.69,2.385-2.793
			c0-0.164,0-0.476,0-0.884C75.869,460.72,74.757,462.007,73.492,462.398z"/>
		<path fill="#FFFFFF" d="M72.434,475.49h-23.67c-3.511,0-6.491-2.312-7.503-5.49l-0.039-0.133l-6.341-21.521h-3.158l-0.577-1.941
			c-0.168,0-0.267,0-0.267,0l0.844,2.842h3.158l6.341,21.521l0.039,0.133c1.013,3.181,3.992,5.49,7.503,5.49h23.67
			c0,0,3.467,0.216,3.444-2.294c-0.002-0.154-0.018-0.3-0.043-0.435C75.451,475.675,72.434,475.49,72.434,475.49z"/>
	</g>
	<g opacity="0.5">
		<circle fill="#010101" cx="49.111" cy="481.272" r="4.284"/>
		<circle fill="#010101" cx="71.593" cy="481.272" r="4.284"/>
		<path fill="#010101" d="M75.878,450.541H40.186c0,0-0.803-2.723-0.983-3.33c-0.179-0.609-0.505-0.957-0.953-1.256
			c-0.447-0.298-1.331-0.445-1.869-0.449c-0.539-0.005-5.503,0-5.503,0l0.844,2.842h3.158l6.341,21.521L41.26,470
			c1.013,3.18,3.992,5.49,7.503,5.49h23.67c0,0,3.467,0.215,3.443-2.293c-0.022-2.511-3.443-2.181-3.443-2.181h-23.67
			c-1.507,0-2.786-0.984-3.232-2.346c-0.014-0.045-0.026-0.09-0.04-0.135l-0.185-0.627c0,0,26.915-5.119,28.186-5.513
			c1.271-0.393,2.389-1.69,2.385-2.793C75.875,458.479,75.878,450.541,75.878,450.541z"/>
	</g>
	<g id="shadow" opacity="0.5">
		<path fill="#010101" d="M75.876,451.623c0,1.398,0,3.873,0,5.725C75.876,454.742,75.878,451.623,75.876,451.623L75.876,451.623z"
			/>
		<path fill="#010101" d="M49.111,476.99c-2.367,0-4.285,1.918-4.285,4.284c0,0.184,0.015,0.362,0.038,0.54
			c0.266-2.11,2.064-3.744,4.247-3.744c2.183,0,3.98,1.634,4.247,3.744c0.022-0.178,0.038-0.356,0.038-0.54
			C53.396,478.908,51.478,476.99,49.111,476.99z"/>
		<path fill="#010101" d="M71.593,476.99c-2.367,0-4.285,1.918-4.285,4.284c0,0.184,0.016,0.362,0.038,0.54
			c0.266-2.11,2.063-3.744,4.247-3.744c2.183,0,3.98,1.634,4.246,3.744c0.022-0.178,0.039-0.356,0.039-0.54
			C75.878,478.908,73.958,476.99,71.593,476.99z"/>
		<path fill="#010101" d="M45.492,469.62c0.013,0.046,0.026,0.091,0.04,0.136c0.446,1.359,1.725,2.344,3.232,2.344h23.67
			c0,0,2.911-0.274,3.376,1.656c0.041-0.17,0.07-0.352,0.068-0.557c-0.023-2.51-3.444-2.181-3.444-2.181h-23.67
			c-1.409,0-2.609-0.865-3.125-2.09c-0.215,0.041-0.332,0.063-0.332,0.063L45.492,469.62z"/>
		<path fill="#010101" d="M36.381,446.587c0.539,0.005,1.422,0.152,1.869,0.45s0.774,0.646,0.953,1.255
			c0.18,0.607,0.983,3.33,0.983,3.33h35.69c0-0.658,0.002-1.08,0.002-1.08H40.186c0,0-0.803-2.723-0.983-3.33
			c-0.179-0.607-0.505-0.957-0.953-1.256c-0.447-0.297-1.331-0.445-1.869-0.449c-0.539-0.005-5.503,0-5.503,0l0.321,1.08
			C32.306,446.586,35.926,446.583,36.381,446.587z"/>
	</g>
</g>
</svg>
